<svg xmlns="http://www.w3.org/2000/svg" width="1440" height="960" viewBox="0 0 1440 960" fill="none">
  <rect width="1440" height="960" fill="#F8FAFC"/>
  <rect x="0" y="0" width="240" height="960" fill="#FFFFFF" stroke="#E2E8F0"/>
  <rect x="20" y="20" width="200" height="64" rx="12" fill="#EEF2FF"/>
  <text x="40" y="58" font-size="20" font-family="Arial, sans-serif" fill="#334155">AI Interview</text>
  <text x="20" y="124" font-size="14" font-family="Arial, sans-serif" fill="#94A3B8">知识库模块</text>
  <rect x="20" y="140" width="200" height="56" rx="10" fill="#DBEAFE"/>
  <text x="40" y="174" font-size="15" font-family="Arial, sans-serif" fill="#1E40AF">知识库管理</text>
  <rect x="20" y="204" width="200" height="56" rx="10" fill="#F8FAFC" stroke="#E2E8F0"/>
  <text x="40" y="238" font-size="15" font-family="Arial, sans-serif" fill="#64748B">问答助手</text>

  <text x="280" y="64" font-size="30" font-family="Arial, sans-serif" fill="#0F172A">知识库管理页面原型图</text>
  <text x="280" y="94" font-size="14" font-family="Arial, sans-serif" fill="#64748B">页面结构：标题区 / 数据统计 / 筛选区 / 列表区 / 操作区</text>

  <rect x="280" y="120" width="1120" height="96" rx="12" fill="#FFFFFF" stroke="#CBD5E1"/>
  <text x="304" y="160" font-size="20" font-family="Arial, sans-serif" fill="#1E293B">知识库管理</text>
  <rect x="1120" y="144" width="120" height="42" rx="8" fill="#3B82F6"/>
  <text x="1148" y="171" font-size="14" font-family="Arial, sans-serif" fill="#FFFFFF">上传知识库</text>
  <rect x="1254" y="144" width="120" height="42" rx="8" fill="#F1F5F9" stroke="#CBD5E1"/>
  <text x="1284" y="171" font-size="14" font-family="Arial, sans-serif" fill="#334155">问答助手</text>

  <rect x="280" y="236" width="1120" height="120" rx="12" fill="#FFFFFF" stroke="#CBD5E1"/>
  <rect x="304" y="262" width="260" height="72" rx="10" fill="#EFF6FF"/>
  <text x="322" y="292" font-size="14" font-family="Arial, sans-serif" fill="#1E3A8A">知识库总数</text>
  <text x="322" y="322" font-size="24" font-family="Arial, sans-serif" fill="#1E293B">1,024</text>
  <rect x="584" y="262" width="260" height="72" rx="10" fill="#EEF2FF"/>
  <text x="602" y="292" font-size="14" font-family="Arial, sans-serif" fill="#3730A3">总提问次数</text>
  <text x="602" y="322" font-size="24" font-family="Arial, sans-serif" fill="#1E293B">8,560</text>
  <rect x="864" y="262" width="260" height="72" rx="10" fill="#ECFDF5"/>
  <text x="882" y="292" font-size="14" font-family="Arial, sans-serif" fill="#065F46">总访问次数</text>
  <text x="882" y="322" font-size="24" font-family="Arial, sans-serif" fill="#1E293B">21,480</text>

  <rect x="280" y="376" width="1120" height="82" rx="12" fill="#FFFFFF" stroke="#CBD5E1"/>
  <rect x="304" y="398" width="420" height="38" rx="8" fill="#F8FAFC" stroke="#CBD5E1"/>
  <text x="322" y="422" font-size="14" font-family="Arial, sans-serif" fill="#94A3B8">搜索知识库名称...</text>
  <rect x="748" y="398" width="180" height="38" rx="8" fill="#F8FAFC" stroke="#CBD5E1"/>
  <text x="768" y="422" font-size="14" font-family="Arial, sans-serif" fill="#475569">按时间排序 ▼</text>
  <rect x="944" y="398" width="180" height="38" rx="8" fill="#F8FAFC" stroke="#CBD5E1"/>
  <text x="964" y="422" font-size="14" font-family="Arial, sans-serif" fill="#475569">全部分类 ▼</text>

  <rect x="280" y="478" width="1120" height="430" rx="12" fill="#FFFFFF" stroke="#CBD5E1"/>
  <rect x="280" y="478" width="1120" height="56" rx="12" fill="#F8FAFC"/>
  <text x="312" y="512" font-size="13" font-family="Arial, sans-serif" fill="#475569">名称</text>
  <text x="520" y="512" font-size="13" font-family="Arial, sans-serif" fill="#475569">分类</text>
  <text x="648" y="512" font-size="13" font-family="Arial, sans-serif" fill="#475569">大小</text>
  <text x="746" y="512" font-size="13" font-family="Arial, sans-serif" fill="#475569">状态</text>
  <text x="860" y="512" font-size="13" font-family="Arial, sans-serif" fill="#475569">提问</text>
  <text x="944" y="512" font-size="13" font-family="Arial, sans-serif" fill="#475569">上传时间</text>
  <text x="1248" y="512" font-size="13" font-family="Arial, sans-serif" fill="#475569">操作</text>

  <line x1="280" y1="534" x2="1400" y2="534" stroke="#E2E8F0"/>
  <line x1="280" y1="606" x2="1400" y2="606" stroke="#F1F5F9"/>
  <line x1="280" y1="678" x2="1400" y2="678" stroke="#F1F5F9"/>
  <line x1="280" y1="750" x2="1400" y2="750" stroke="#F1F5F9"/>

  <text x="312" y="578" font-size="14" font-family="Arial, sans-serif" fill="#1E293B">Java面试题库</text>
  <text x="520" y="578" font-size="14" font-family="Arial, sans-serif" fill="#334155">后端</text>
  <text x="648" y="578" font-size="14" font-family="Arial, sans-serif" fill="#334155">12.4 MB</text>
  <rect x="746" y="559" width="70" height="24" rx="12" fill="#DCFCE7"/>
  <text x="767" y="575" font-size="12" font-family="Arial, sans-serif" fill="#166534">已完成</text>
  <text x="868" y="578" font-size="14" font-family="Arial, sans-serif" fill="#334155">236</text>
  <text x="944" y="578" font-size="14" font-family="Arial, sans-serif" fill="#334155">2026-04-22</text>
  <rect x="1236" y="554" width="28" height="28" rx="6" fill="#EFF6FF"/>
  <rect x="1272" y="554" width="28" height="28" rx="6" fill="#EEF2FF"/>
  <rect x="1308" y="554" width="28" height="28" rx="6" fill="#FEF2F2"/>

  <text x="312" y="650" font-size="14" font-family="Arial, sans-serif" fill="#1E293B">系统设计文档</text>
  <text x="520" y="650" font-size="14" font-family="Arial, sans-serif" fill="#334155">架构</text>
  <text x="648" y="650" font-size="14" font-family="Arial, sans-serif" fill="#334155">8.7 MB</text>
  <rect x="746" y="631" width="70" height="24" rx="12" fill="#DBEAFE"/>
  <text x="767" y="647" font-size="12" font-family="Arial, sans-serif" fill="#1D4ED8">处理中</text>
  <text x="868" y="650" font-size="14" font-family="Arial, sans-serif" fill="#334155">98</text>
  <text x="944" y="650" font-size="14" font-family="Arial, sans-serif" fill="#334155">2026-04-20</text>
  <rect x="1236" y="626" width="28" height="28" rx="6" fill="#EFF6FF"/>
  <rect x="1272" y="626" width="28" height="28" rx="6" fill="#EEF2FF"/>
  <rect x="1308" y="626" width="28" height="28" rx="6" fill="#FEF2F2"/>

  <text x="312" y="722" font-size="14" font-family="Arial, sans-serif" fill="#1E293B">前端开发规范</text>
  <text x="520" y="722" font-size="14" font-family="Arial, sans-serif" fill="#334155">前端</text>
  <text x="648" y="722" font-size="14" font-family="Arial, sans-serif" fill="#334155">5.2 MB</text>
  <rect x="746" y="703" width="70" height="24" rx="12" fill="#FEE2E2"/>
  <text x="773" y="719" font-size="12" font-family="Arial, sans-serif" fill="#991B1B">失败</text>
  <text x="868" y="722" font-size="14" font-family="Arial, sans-serif" fill="#334155">42</text>
  <text x="944" y="722" font-size="14" font-family="Arial, sans-serif" fill="#334155">2026-04-19</text>
  <rect x="1236" y="698" width="28" height="28" rx="6" fill="#EFF6FF"/>
  <rect x="1272" y="698" width="28" height="28" rx="6" fill="#EEF2FF"/>
  <rect x="1308" y="698" width="28" height="28" rx="6" fill="#FEF2F2"/>

  <text x="280" y="940" font-size="12" font-family="Arial, sans-serif" fill="#94A3B8">说明：该原型图用于展示信息架构与核心交互布局，不涉及最终视觉细节。</text>
</svg>
